<?xml version="1.0" standalone="no"?>
<!DOCTYPE svg PUBLIC "-//W3C//DTD SVG 20010904//EN"
 "http://www.w3.org/TR/2001/REC-SVG-20010904/DTD/svg10.dtd">
<svg version="1.0" xmlns="http://www.w3.org/2000/svg"
 width="2400.000000pt" height="1601.000000pt" viewBox="0 0 2400.000000 1601.000000"
 preserveAspectRatio="xMidYMid meet">

<g transform="translate(0.000000,1601.000000) scale(0.100000,-0.100000)"
fill="#000000" stroke="none">
<path d="M12680 9096 c-63 -26 -111 -48 -261 -117 -58 -27 -109 -49 -114 -49
-4 0 -19 -8 -33 -19 -15 -10 -47 -26 -72 -34 -25 -8 -89 -40 -143 -71 -54 -31
-102 -56 -106 -56 -5 0 -26 -12 -47 -28 -21 -15 -64 -40 -94 -56 -30 -16 -62
-34 -70 -41 -14 -11 -121 -65 -145 -73 -5 -2 -3 2 5 8 13 10 13 11 0 7 -8 -2
-15 -8 -15 -13 -1 -24 -28 -52 -82 -83 -32 -19 -94 -60 -138 -91 -44 -31 -116
-75 -160 -97 -44 -21 -161 -89 -260 -149 l-180 -109 -77 -1 -77 0 -29 -40
c-46 -63 -110 -114 -232 -183 -62 -36 -146 -91 -188 -123 -83 -64 -104 -73
-162 -65 -33 4 -49 -1 -97 -30 -86 -52 -135 -76 -325 -157 -95 -41 -256 -113
-358 -161 -102 -48 -255 -110 -340 -140 -85 -29 -252 -89 -370 -133 -303 -114
-1544 -523 -2340 -773 -107 -33 -267 -85 -355 -114 -88 -30 -221 -73 -295 -96
-74 -23 -159 -52 -189 -65 -29 -13 -69 -24 -88 -24 -18 0 -80 -16 -136 -36
-56 -19 -219 -71 -362 -114 -143 -44 -300 -93 -350 -110 -158 -52 -1025 -319
-1170 -359 -77 -22 -194 -53 -260 -69 -66 -16 -145 -37 -175 -46 -85 -27 -198
-55 -280 -71 -95 -19 -127 -32 -133 -55 -3 -13 -30 -26 -93 -44 -49 -15 -138
-42 -199 -61 -207 -63 -390 -118 -490 -145 -299 -82 -445 -120 -464 -120 -12
0 -35 -7 -50 -15 -28 -14 -140 -47 -616 -180 -366 -102 -367 -103 -415 -108
-25 -3 -37 -3 -27 0 23 6 22 23 -3 23 -20 0 -20 -7 -20 -2205 l0 -2205 12000
0 12000 0 0 2351 c0 1969 -2 2353 -14 2364 -12 13 -210 73 -496 152 -69 19
-174 49 -235 68 -60 18 -193 57 -295 85 -102 28 -260 76 -352 105 -92 30 -229
70 -305 90 -76 20 -203 54 -283 77 -80 22 -185 51 -235 63 -49 13 -133 44
-185 69 -52 25 -248 96 -435 157 -187 61 -419 139 -515 174 -96 34 -274 97
-395 140 -260 92 -359 133 -423 174 -28 18 -78 37 -120 46 -98 20 -142 35
-382 126 -327 123 -811 321 -1050 428 -47 21 -110 49 -140 62 -30 13 -68 33
-85 44 -16 11 -66 32 -110 47 -95 31 -892 391 -1740 786 -159 74 -328 151
-375 172 -47 21 -215 97 -375 169 -583 266 -1161 520 -1530 671 -377 155 -503
209 -680 292 -185 88 -337 151 -390 164 -16 4 -38 15 -48 25 -24 25 -60 24
-127 -5z"/>
</g>
</svg>
