<?xml version="1.0" standalone="no"?>
<!DOCTYPE svg PUBLIC "-//W3C//DTD SVG 20010904//EN"
 "http://www.w3.org/TR/2001/REC-SVG-20010904/DTD/svg10.dtd">
<svg version="1.0" xmlns="http://www.w3.org/2000/svg"
 width="2400.000000pt" height="1601.000000pt" viewBox="0 0 2400.000000 1601.000000"
 preserveAspectRatio="xMidYMid meet">

<g transform="translate(0.000000,1601.000000) scale(0.100000,-0.100000)"
fill="#000000" stroke="none">
<path d="M23925 8996 c-16 -7 -43 -24 -60 -38 -16 -14 -64 -48 -107 -76 -42
-28 -109 -80 -150 -115 -40 -35 -95 -79 -123 -99 -27 -20 -72 -59 -100 -87
-42 -44 -55 -51 -87 -51 -53 0 -135 -65 -258 -204 -156 -175 -268 -343 -317
-472 -14 -38 -44 -93 -66 -121 -38 -51 -42 -53 -86 -53 -44 0 -48 -2 -96 -63
-27 -34 -102 -114 -166 -177 -67 -67 -144 -155 -182 -210 -41 -59 -100 -126
-155 -177 -106 -97 -140 -145 -187 -267 -58 -150 -150 -244 -329 -337 -61 -32
-65 -32 -104 -20 l-41 14 -57 -49 c-30 -27 -61 -52 -67 -56 -35 -19 -136 -57
-162 -60 -29 -3 -30 -1 -36 42 -7 60 -70 186 -82 165 -4 -9 -28 -25 -52 -36
-88 -41 -157 -142 -196 -286 -11 -43 -34 -105 -50 -139 -19 -37 -36 -98 -46
-158 l-17 -99 -51 -23 c-28 -13 -72 -27 -97 -30 -40 -6 -51 -3 -82 21 -36 27
-38 28 -103 17 -36 -6 -70 -9 -75 -6 -4 3 -8 19 -8 35 0 44 -27 49 -59 11 -26
-32 -26 -32 -99 -25 -72 6 -74 7 -100 46 l-27 41 -5 -29 c-4 -23 -12 -31 -38
-36 -37 -8 -34 -10 -62 64 -12 31 -24 57 -28 57 -4 0 -27 -11 -51 -25 -23 -14
-47 -25 -51 -25 -4 0 -18 17 -30 37 l-22 37 -28 -34 -27 -34 -78 19 c-110 26
-426 133 -590 200 -77 32 -174 71 -215 87 -74 30 -338 123 -560 198 -63 21
-182 66 -265 100 -243 100 -396 157 -635 237 -153 51 -282 102 -405 161 -251
120 -245 116 -245 163 0 33 -9 49 -56 105 -31 36 -77 96 -102 133 -128 187
-165 221 -277 257 -131 42 -145 42 -222 -2 -37 -21 -129 -80 -203 -132 -164
-114 -228 -147 -339 -177 -99 -25 -427 -181 -591 -280 -151 -91 -368 -195
-421 -202 -24 -3 -51 -12 -59 -19 -9 -7 -49 -20 -90 -29 -41 -9 -114 -29 -161
-45 -154 -53 -301 -41 -572 50 -177 59 -319 127 -504 240 -152 93 -153 94
-233 290 -28 69 -74 168 -102 220 -28 52 -72 133 -96 180 -55 103 -62 113
-133 175 -112 100 -128 112 -176 132 -72 30 -132 76 -169 131 -83 124 -234
252 -298 252 -49 0 -201 -43 -296 -85 -47 -20 -186 -77 -308 -126 -293 -117
-336 -140 -471 -248 -62 -50 -139 -105 -170 -123 -31 -17 -105 -64 -166 -103
-244 -160 -506 -293 -716 -364 -112 -38 -128 -49 -312 -222 l-60 -55 -171 38
c-94 21 -218 50 -276 64 -105 26 -105 26 -407 20 -276 -6 -315 -9 -460 -36
-87 -16 -196 -34 -243 -40 -101 -12 -199 -38 -307 -81 -126 -50 -333 -89 -518
-98 -199 -10 -257 -29 -442 -142 -37 -23 -105 -58 -152 -78 -47 -21 -156 -85
-242 -143 -155 -104 -254 -154 -379 -189 -36 -11 -105 -39 -155 -63 -53 -26
-158 -64 -255 -91 -91 -26 -212 -63 -270 -83 -136 -46 -193 -46 -310 -2 -74
29 -98 33 -190 35 -80 1 -127 8 -200 29 -90 26 -249 102 -315 151 -16 12 -79
48 -140 80 -92 49 -121 71 -180 134 -38 41 -113 119 -166 173 l-97 98 -83 0
c-46 0 -123 7 -171 17 l-87 16 -93 -70 c-105 -80 -177 -148 -258 -244 -168
-199 -307 -332 -395 -376 -75 -38 -200 -120 -289 -188 -153 -117 -179 -135
-203 -135 -25 0 -319 -151 -421 -217 -114 -72 -321 -252 -468 -407 l-100 -105
-165 -79 c-90 -44 -205 -106 -255 -138 -51 -32 -144 -86 -208 -119 l-116 -60
0 -67 c0 -37 -4 -70 -10 -73 -7 -4 -10 -768 -10 -2261 l0 -2254 12000 0 12000
0 0 4474 c0 3968 -2 4475 -15 4480 -8 3 -15 17 -15 31 0 28 -3 29 -45 11z"/>
</g>
</svg>
